<svg xmlns="http://www.w3.org/2000/svg" width="11" height="11" viewBox="0 0 11 11" fill="none">
<path fill-rule="evenodd" clip-rule="evenodd" d="M9.53894 10.3555C9.83184 10.6483 10.3067 10.6483 10.5996 10.3555C10.8925 10.0626 10.8925 9.58769 10.5996 9.2948L6.88731 5.5825L10.5996 1.87022C10.8925 1.57732 10.8925 1.10245 10.5996 0.809558C10.3067 0.516665 9.83183 0.516665 9.53894 0.809558L5.82665 4.52184L2.11432 0.809514C1.82143 0.51662 1.34656 0.516621 1.05366 0.809514C0.76077 1.10241 0.76077 1.57728 1.05366 1.87017L4.76599 5.5825L1.05365 9.29484C0.760761 9.58773 0.760761 10.0626 1.05365 10.3555C1.34655 10.6484 1.82142 10.6484 2.11431 10.3555L5.82665 6.64316L9.53894 10.3555Z" fill="#fff"/>
</svg>