<svg width="25" height="25" viewBox="0 0 25 25" fill="none" xmlns="http://www.w3.org/2000/svg">
<path d="M5.37598 6.50293H2.87598M5.37598 12.5029H2.87598M5.37598 18.5029H2.87598M8.37598 2.50293H17.876C20.0851 2.50293 21.876 4.29379 21.876 6.50293V18.5029C21.876 20.7121 20.0851 22.5029 17.876 22.5029H8.37598C6.16684 22.5029 4.37598 20.7121 4.37598 18.5029V6.50293C4.37598 4.29379 6.16684 2.50293 8.37598 2.50293ZM10.966 14.2437C10.3372 14.6649 8.68859 15.525 9.69272 16.6012C10.1832 17.1269 10.7296 17.5029 11.4164 17.5029H15.3356C16.0224 17.5029 16.5688 17.1269 17.0593 16.6012C18.0634 15.525 16.4148 14.6649 15.786 14.2437C14.3115 13.256 12.4405 13.256 10.966 14.2437ZM15.376 9.50293C15.376 10.6075 14.4806 11.5029 13.376 11.5029C12.2714 11.5029 11.376 10.6075 11.376 9.50293C11.376 8.39836 12.2714 7.50293 13.376 7.50293C14.4806 7.50293 15.376 8.39836 15.376 9.50293Z" stroke="#333333" stroke-width="1.5" stroke-linecap="round"/>
</svg>
