<svg xmlns="http://www.w3.org/2000/svg" width="22" height="20" viewBox="0 0 22 20" fill="none">
<path d="M6.04688 4.04102V4.79102C6.29764 4.79102 6.53181 4.66569 6.67091 4.45704L6.04688 4.04102ZM7.45314 1.93161L6.8291 1.51559V1.51559L7.45314 1.93161ZM14.6406 1.93162L15.2646 1.51559L14.6406 1.93162ZM16.0469 4.04102L15.4228 4.45704C15.5619 4.66569 15.7961 4.79102 16.0469 4.79102V4.04102ZM14.0469 11.541H13.2969C13.2969 12.7837 12.2895 13.791 11.0469 13.791V14.541V15.291C13.1179 15.291 14.7969 13.6121 14.7969 11.541H14.0469ZM11.0469 14.541V13.791C9.80423 13.791 8.79688 12.7837 8.79688 11.541H8.04688H7.29688C7.29688 13.6121 8.97581 15.291 11.0469 15.291V14.541ZM8.04688 11.541H8.79688C8.79688 10.2984 9.80423 9.29102 11.0469 9.29102V8.54102V7.79102C8.97581 7.79102 7.29688 9.46995 7.29688 11.541H8.04688ZM11.0469 8.54102V9.29102C12.2895 9.29102 13.2969 10.2984 13.2969 11.541H14.0469H14.7969C14.7969 9.46995 13.1179 7.79102 11.0469 7.79102V8.54102ZM6.04688 4.04102L6.67091 4.45704L8.07718 2.34764L7.45314 1.93161L6.8291 1.51559L5.42284 3.62499L6.04688 4.04102ZM9.11724 1.04102V1.79102H12.9765V1.04102V0.291016H9.11724V1.04102ZM14.6406 1.93162L14.0166 2.34764L15.4228 4.45704L16.0469 4.04102L16.6709 3.62499L15.2646 1.51559L14.6406 1.93162ZM12.9765 1.04102V1.79102C13.3944 1.79102 13.7847 1.99989 14.0166 2.34764L14.6406 1.93162L15.2646 1.51559C14.7546 0.750544 13.896 0.291016 12.9765 0.291016V1.04102ZM7.45314 1.93161L8.07718 2.34764C8.30901 1.99989 8.6993 1.79102 9.11724 1.79102V1.04102V0.291016C8.19777 0.291016 7.33914 0.750543 6.8291 1.51559L7.45314 1.93161ZM21.0469 8.04102H20.2969V15.041H21.0469H21.7969V8.04102H21.0469ZM17.0469 19.041V18.291H5.04687V19.041V19.791H17.0469V19.041ZM1.04688 15.041H1.79688V8.04102H1.04688H0.296875V15.041H1.04688ZM5.04687 19.041V18.291C3.25195 18.291 1.79688 16.8359 1.79688 15.041H1.04688H0.296875C0.296875 17.6644 2.42352 19.791 5.04687 19.791V19.041ZM21.0469 15.041H20.2969C20.2969 16.8359 18.8418 18.291 17.0469 18.291V19.041V19.791C19.6702 19.791 21.7969 17.6644 21.7969 15.041H21.0469ZM17.0469 4.04102V4.79102C18.8418 4.79102 20.2969 6.24609 20.2969 8.04102H21.0469H21.7969C21.7969 5.41766 19.6702 3.29102 17.0469 3.29102V4.04102ZM5.04688 4.04102V3.29102C2.42352 3.29102 0.296875 5.41766 0.296875 8.04102H1.04688H1.79688C1.79688 6.24609 3.25195 4.79102 5.04688 4.79102V4.04102ZM5.04688 4.04102V4.79102H6.04688V4.04102V3.29102H5.04688V4.04102ZM17.0469 4.04102V3.29102H16.0469V4.04102V4.79102H17.0469V4.04102Z" fill="#AF1237"/>
</svg>