<svg xmlns="http://www.w3.org/2000/svg" width="25" height="25" viewBox="0 0 25 25" fill="none">
<path fill-rule="evenodd" clip-rule="evenodd" d="M12.4404 22.707C17.9633 22.707 22.4404 18.2299 22.4404 12.707C22.4404 7.18418 17.9633 2.70703 12.4404 2.70703C6.91758 2.70703 2.44043 7.18418 2.44043 12.707C2.44043 18.2299 6.91758 22.707 12.4404 22.707ZM13.1904 8.70703C13.1904 8.29282 12.8546 7.95703 12.4404 7.95703C12.0262 7.95703 11.6904 8.29282 11.6904 8.70703V9.70703C11.6904 10.1212 12.0262 10.457 12.4404 10.457C12.8546 10.457 13.1904 10.1212 13.1904 9.70703V8.70703ZM13.1904 12.207C13.1904 11.7928 12.8546 11.457 12.4404 11.457C12.0262 11.457 11.6904 11.7928 11.6904 12.207V16.707C11.6904 17.1212 12.0262 17.457 12.4404 17.457C12.8546 17.457 13.1904 17.1212 13.1904 16.707V12.207Z" fill="#0084FF"/>
</svg>