<svg width="160" height="160" viewBox="0 0 160 160" fill="none" xmlns="http://www.w3.org/2000/svg">
<g clip-path="url(#clip0_3173_9034)">
<path d="M-1.52588e-05 146C-1.34039e-05 124.783 8.42853 104.434 23.4314 89.4315C38.4344 74.4285 58.7827 66 80 66C101.217 66 121.566 74.4286 136.569 89.4315C151.571 104.434 160 124.783 160 146L80 146L-1.52588e-05 146Z" fill="url(#paint0_linear_3173_9034)"/>
<path d="M126.739 56.8H46.0612C44.4896 56.8 43.2 55.7452 43.2 54.4596V38.3404C43.2 37.0548 44.4896 36 46.0612 36H126.739C128.31 36 129.6 37.0548 129.6 38.3404V54.4596C129.6 55.7452 128.31 56.8 126.739 56.8Z" fill="#F7D4D7"/>
<rect x="66.4" y="40.8" width="34.4" height="4.8" rx="0.8" fill="white"/>
<rect x="66.4" y="48" width="54.4" height="4.8" rx="0.8" fill="white"/>
<path d="M55.1775 53.6234C59.1664 53.6234 62.4 50.3921 62.4 46.4062C62.4 42.4202 59.1664 39.189 55.1775 39.189C51.1887 39.189 47.9551 42.4202 47.9551 46.4062C47.9551 50.3921 51.1887 53.6234 55.1775 53.6234Z" fill="#F5CCD0"/>
<path fill-rule="evenodd" clip-rule="evenodd" d="M57.4659 44.1924C57.7772 44.5063 57.7749 45.0131 57.4608 45.3242L54.0532 48.6989C53.7394 49.0097 53.2332 49.0074 52.9223 48.6939L52.8895 48.6608C52.5782 48.347 52.5805 47.8401 52.8946 47.5291L56.3022 44.1543C56.616 43.8436 57.1222 43.8459 57.4332 44.1594L57.4659 44.1924Z" fill="white"/>
<path fill-rule="evenodd" clip-rule="evenodd" d="M52.9223 44.1594C53.2332 43.8459 53.7394 43.8436 54.0532 44.1543L57.4608 47.5291C57.7749 47.8401 57.7772 48.347 57.4659 48.6608L57.4332 48.6939C57.1222 49.0074 56.616 49.0097 56.3022 48.6989L52.8946 45.3242C52.5805 45.0131 52.5782 44.5063 52.8895 44.1924L52.9223 44.1594Z" fill="white"/>
<path d="M110.739 86.4001H30.0612C28.4896 86.4001 27.2 85.3453 27.2 84.0597V67.9405C27.2 66.6549 28.4896 65.6001 30.0612 65.6001H110.739C112.31 65.6001 113.6 66.6549 113.6 67.9405V84.0597C113.6 85.3453 112.31 86.4001 110.739 86.4001Z" fill="#FBEAEC"/>
<rect x="50.4" y="70.4001" width="34.4" height="4.8" rx="0.8" fill="white"/>
<rect x="50.4" y="77.6001" width="54.4" height="4.8" rx="0.8" fill="white"/>
<path d="M39.1775 83.2235C43.1664 83.2235 46.4 79.9922 46.4 76.0063C46.4 72.0203 43.1664 68.7891 39.1775 68.7891C35.1887 68.7891 31.9551 72.0203 31.9551 76.0063C31.9551 79.9922 35.1887 83.2235 39.1775 83.2235Z" fill="#F5CCD0"/>
<path fill-rule="evenodd" clip-rule="evenodd" d="M42.7199 73.7819C43.0323 74.0943 43.0323 74.6008 42.7199 74.9132L38.7104 78.9227C38.398 79.2351 37.8915 79.2351 37.579 78.9227L35.848 77.1917C35.5356 76.8793 35.5356 76.3727 35.848 76.0603L35.8845 76.0238C36.1969 75.7114 36.7035 75.7114 37.0159 76.0238L38.1447 77.1526L41.552 73.7454C41.8644 73.433 42.371 73.433 42.6834 73.7454L42.7199 73.7819Z" fill="white"/>
<path d="M126.739 116H46.0612C44.4896 116 43.2 114.945 43.2 113.66V97.5404C43.2 96.2548 44.4896 95.2 46.0612 95.2H126.739C128.31 95.2 129.6 96.2548 129.6 97.5404V113.66C129.6 114.945 128.31 116 126.739 116Z" fill="#FCF2F4"/>
<rect x="66.4" y="100" width="34.4" height="4.8" rx="0.8" fill="white"/>
<rect x="66.4" y="107.2" width="54.4" height="4.8" rx="0.8" fill="white"/>
<path d="M55.1775 112.823C59.1664 112.823 62.4 109.592 62.4 105.606C62.4 101.62 59.1664 98.3889 55.1775 98.3889C51.1887 98.3889 47.9551 101.62 47.9551 105.606C47.9551 109.592 51.1887 112.823 55.1775 112.823Z" fill="#F5CCD0"/>
<path fill-rule="evenodd" clip-rule="evenodd" d="M57.4659 103.392C57.7772 103.706 57.7749 104.213 57.4608 104.524L54.0532 107.899C53.7394 108.21 53.2332 108.207 52.9223 107.894L52.8895 107.861C52.5782 107.547 52.5805 107.04 52.8946 106.729L56.3022 103.354C56.616 103.044 57.1222 103.046 57.4332 103.359L57.4659 103.392Z" fill="white"/>
<path fill-rule="evenodd" clip-rule="evenodd" d="M52.9223 103.359C53.2332 103.046 53.7394 103.044 54.0532 103.354L57.4608 106.729C57.7749 107.04 57.7772 107.547 57.4659 107.861L57.4332 107.894C57.1222 108.207 56.616 108.21 56.3022 107.899L52.8946 104.524C52.5805 104.213 52.5782 103.706 52.8895 103.392L52.9223 103.359Z" fill="white"/>
</g>
<defs>
<linearGradient id="paint0_linear_3173_9034" x1="80" y1="66" x2="80" y2="146.346" gradientUnits="userSpaceOnUse">
<stop offset="0.296875" stop-color="#FDF3F4"/>
<stop offset="1" stop-color="white" stop-opacity="0"/>
</linearGradient>
<clipPath id="clip0_3173_9034">
<rect width="160" height="160" fill="white"/>
</clipPath>
</defs>
</svg>
