<svg width="160" height="160" viewBox="0 0 160 160" fill="none" xmlns="http://www.w3.org/2000/svg">
<g clip-path="url(#clip0_3173_9032)">
<path d="M-1.52588e-05 146C-1.34039e-05 124.783 8.42853 104.434 23.4314 89.4315C38.4344 74.4285 58.7827 66 80 66C101.217 66 121.566 74.4286 136.569 89.4315C151.571 104.434 160 124.783 160 146L80 146L-1.52588e-05 146Z" fill="url(#paint0_linear_3173_9032)"/>
<path d="M119.983 48.8558C115.697 44.5698 110.587 42.7732 105.205 43.6586C100.677 44.4041 96.001 47.0803 91.6828 51.3983L89.3737 53.9309C88.2159 55.2008 88.3072 57.1689 89.5776 58.3261C90.8476 59.4828 92.8149 59.391 93.9717 58.121L96.1329 55.7482C99.5095 52.3856 102.995 50.3284 106.216 49.7982C109.63 49.237 112.694 50.3674 115.583 53.2559C118.472 56.1444 119.603 59.2084 119.041 62.6228C118.508 65.8599 116.433 69.3638 113.041 72.7562L104.008 81.7892C99.9347 85.8623 99.0925 87.9274 94.7851 87.9274H94.0206C92.3032 87.9274 90.9111 89.3196 90.9111 91.0369C90.9111 92.7556 92.3053 94.1483 94.024 94.1464L94.4024 94.1459C100.42 94.1459 103.125 91.4714 108.408 86.189L117.441 77.156C121.759 72.8378 124.435 68.1618 125.18 63.6334C126.066 58.2516 124.269 53.1418 119.983 48.8558Z" fill="#F5CCD0"/>
<path d="M53.5731 51.7689L58.2717 56.4675C59.8942 58.09 62.5249 58.09 64.1475 56.4675C65.7701 54.8449 65.7701 52.2142 64.1475 50.5917L59.4491 45.8931C57.8265 44.2704 55.1957 44.2705 53.5731 45.8931C51.9506 47.5157 51.9506 50.1464 53.5731 51.7689Z" fill="#FBEAEC"/>
<path d="M51.6022 61.0077L44.9558 61.0077C42.6607 61.0077 40.8 62.8684 40.8 65.1635C40.8 67.4587 42.6607 69.3193 44.9558 69.3193L51.6022 69.3193C53.8973 69.3193 55.758 67.4587 55.758 65.1635C55.758 62.8684 53.8973 61.0077 51.6022 61.0077Z" fill="#FBEAEC"/>
<path d="M68.8052 37.1545L68.8052 43.8056C68.8052 46.1003 70.6654 47.9605 72.9601 47.9605C75.2547 47.9605 77.1149 46.1003 77.1149 43.8056L77.1149 37.1545C77.1149 34.8598 75.2547 32.9996 72.9601 32.9996C70.6654 32.9996 68.8052 34.8598 68.8052 37.1545Z" fill="#FBEAEC"/>
<path d="M116.342 106.55L111.643 101.852C110.021 100.229 107.39 100.229 105.768 101.852C104.145 103.474 104.145 106.105 105.767 107.727L110.466 112.426C112.089 114.049 114.719 114.049 116.342 112.426C117.964 110.803 117.964 108.173 116.342 106.55Z" fill="#FBEAEC"/>
<path d="M118.313 97.3114L124.959 97.3114C127.254 97.3114 129.115 95.4507 129.115 93.1556C129.115 90.8604 127.254 88.9998 124.959 88.9998L118.313 88.9998C116.018 88.9998 114.157 90.8604 114.157 93.1556C114.157 95.4507 116.018 97.3114 118.313 97.3114Z" fill="#FBEAEC"/>
<path d="M101.11 121.165L101.11 114.513C101.11 112.219 99.2497 110.359 96.955 110.359C94.6603 110.359 92.8001 112.219 92.8001 114.513L92.8001 121.165C92.8001 123.459 94.6603 125.319 96.955 125.319C99.2497 125.319 101.11 123.459 101.11 121.165Z" fill="#FBEAEC"/>
<path d="M82.3326 81.5915C82.8914 82.5265 83.411 83.2553 83.9206 83.8192C85.0726 85.094 84.9732 87.0614 83.6985 88.2135C82.4237 89.3656 80.4564 89.2661 79.3042 87.9914C78.5183 87.1217 77.7617 86.0723 76.9913 84.7831C76.6875 84.2746 76.3994 83.7037 76.135 83.0859C75.4588 81.5063 76.1912 79.6775 77.7708 79.0013C79.3503 78.3252 81.179 79.0575 81.855 80.637C82.0105 81.0001 82.1711 81.3211 82.3326 81.5915Z" fill="#F5CCD0"/>
<path d="M75.1666 103.437L77.343 101.048C78.4998 99.7776 80.467 99.6858 81.737 100.843C83.0075 102 83.0988 103.968 81.941 105.238L79.6168 107.787C75.2852 112.118 70.5948 114.803 66.0529 115.551C65.1569 115.698 64.2678 115.772 63.3892 115.772C58.9767 115.772 54.818 113.923 51.2332 110.338C46.9349 106.04 45.1325 100.915 46.0209 95.5185C46.7686 90.9766 49.4531 86.2862 53.7846 81.9546L62.8491 72.8901C68.1916 67.548 71.6797 64.7839 77.1812 64.9086L77.22 64.9085C78.9387 64.9065 80.333 66.2992 80.333 68.0179C80.333 69.7351 78.9409 71.1272 77.2237 71.1272H77.1812C77.1783 71.1271 77.0994 71.1296 77.0965 71.1296C72.4629 71.1605 70.0625 74.4763 67.249 77.2901L58.1844 86.3546C54.7785 89.7605 52.6954 93.2788 52.1603 96.5292C51.5958 99.9592 52.7318 103.037 55.633 105.938C58.5342 108.84 61.613 109.976 65.0421 109.411C68.2765 108.878 71.7764 106.813 75.1666 103.437Z" fill="#FBEAEC"/>
</g>
<defs>
<linearGradient id="paint0_linear_3173_9032" x1="80" y1="66" x2="80" y2="146.346" gradientUnits="userSpaceOnUse">
<stop offset="0.296875" stop-color="#FDF3F4"/>
<stop offset="1" stop-color="white" stop-opacity="0"/>
</linearGradient>
<clipPath id="clip0_3173_9032">
<rect width="160" height="160" fill="white"/>
</clipPath>
</defs>
</svg>
