<svg width="160" height="160" viewBox="0 0 160 160" fill="none" xmlns="http://www.w3.org/2000/svg">
<g clip-path="url(#clip0_3173_9033)">
<path d="M-1.52588e-05 146C-1.34039e-05 124.783 8.42853 104.434 23.4314 89.4315C38.4344 74.4285 58.7827 66 80 66C101.217 66 121.566 74.4286 136.569 89.4315C151.571 104.434 160 124.783 160 146L80 146L-1.52588e-05 146Z" fill="url(#paint0_linear_3173_9033)"/>
<path d="M83.746 109.276C84.9344 104.841 82.2966 100.281 77.8541 99.0903C73.4116 97.9 68.8471 100.53 67.6587 104.965C66.4703 109.401 69.1082 113.961 73.5507 115.151C77.9932 116.342 82.5576 113.711 83.746 109.276Z" fill="#F7D4D7"/>
<path d="M90.1403 57.4996C87.0366 57.301 84.6803 54.6288 84.8763 51.5295C85.0722 48.4308 87.747 46.0798 90.85 46.2779C93.9531 46.4763 96.31 49.1488 96.1142 52.248C95.9176 55.3464 93.2435 57.6978 90.1403 57.4996Z" fill="#F7D4D7"/>
<path d="M98.5239 112.799L53.0991 100.628C49.0342 99.5384 46.6208 95.366 47.7081 91.3082C48.0056 90.1987 48.5481 89.17 49.2955 88.2977C50.043 87.4255 50.9764 86.7318 52.0272 86.2678L53.8015 85.4833C57.9051 83.6699 60.9657 80.0988 62.1258 75.7693L64.1948 68.0479C67.2474 56.6552 78.9722 49.8986 90.3834 52.9562C101.794 56.0136 108.57 67.7276 105.517 79.1203L103.41 86.9847C102.848 89.0838 102.755 91.2809 103.137 93.4201C103.519 95.5593 104.367 97.5882 105.621 99.3631L106.725 100.927C107.376 101.848 107.816 102.9 108.014 104.01C108.212 105.12 108.164 106.261 107.872 107.35L107.852 107.424C106.765 111.482 102.589 113.888 98.524 112.799L98.5239 112.799Z" fill="#FBEAEC"/>
<path d="M54.615 48.0106L59.3135 52.7092C60.9361 54.3317 63.5668 54.3317 65.1894 52.7092C66.8119 51.0866 66.812 48.4559 65.1894 46.8334L60.4909 42.1348C58.8683 40.5121 56.2375 40.5122 54.615 42.1348C52.9924 43.7574 52.9924 46.3881 54.615 48.0106Z" fill="#FBEAEC"/>
<path d="M52.644 57.2494L45.9977 57.2494C43.7025 57.2494 41.8419 59.1101 41.8419 61.4052C41.8419 63.7004 43.7025 65.561 45.9977 65.561L52.644 65.561C54.9392 65.561 56.7998 63.7004 56.7998 61.4052C56.7998 59.1101 54.9392 57.2494 52.644 57.2494Z" fill="#FBEAEC"/>
<path d="M69.847 33.3962L69.847 40.0473C69.847 42.342 71.7072 44.2022 74.0019 44.2022C76.2966 44.2022 78.1568 42.342 78.1568 40.0473L78.1568 33.3962C78.1568 31.1015 76.2966 29.2413 74.0019 29.2413C71.7072 29.2413 69.847 31.1015 69.847 33.3962Z" fill="#FBEAEC"/>
</g>
<defs>
<linearGradient id="paint0_linear_3173_9033" x1="80" y1="66" x2="80" y2="146.346" gradientUnits="userSpaceOnUse">
<stop offset="0.296875" stop-color="#FDF3F4"/>
<stop offset="1" stop-color="white" stop-opacity="0"/>
</linearGradient>
<clipPath id="clip0_3173_9033">
<rect width="160" height="160" fill="white"/>
</clipPath>
</defs>
</svg>
