<svg width="160" height="160" viewBox="0 0 160 160" fill="none" xmlns="http://www.w3.org/2000/svg">
<g clip-path="url(#clip0_3173_9035)">
<path d="M-7.62939e-05 146C-7.44391e-05 124.783 8.42847 104.434 23.4314 89.4315C38.4343 74.4285 58.7826 66 79.9999 66C101.217 66 121.566 74.4286 136.568 89.4315C151.571 104.434 160 124.783 160 146L79.9999 146L-7.62939e-05 146Z" fill="url(#paint0_linear_3173_9035)"/>
<path d="M70.5888 37.2678C53.8773 37.2678 40.3219 50.8232 40.3219 67.5347C40.3219 84.2462 53.8773 97.7853 70.5888 97.7853C76.5039 97.7853 82.0025 96.0927 86.6548 93.1642C90.5204 90.7473 93.8177 87.4648 96.2361 83.5844C99.1453 78.9321 100.841 73.42 100.841 67.5347C100.841 50.8217 87.3018 37.2678 70.5888 37.2678ZM70.5858 91.4939C57.377 91.4939 46.6266 80.7451 46.6266 67.5332C46.6266 54.3214 57.377 43.5726 70.5858 43.5726C83.7947 43.5726 94.5495 54.3229 94.5495 67.5332C94.5495 80.7451 83.8007 91.4939 70.5858 91.4939Z" fill="#F5CCD0"/>
<path d="M91.0959 101.209L103.387 113.286C107.007 116.905 112.931 116.905 116.554 113.286C120.176 109.664 120.176 103.74 116.554 100.119L104.262 88.0388L91.0959 101.209Z" fill="#F5CCD0"/>
<path d="M102.611 89.6841L92.738 99.5718L86.5016 93.3191L86.6548 93.1644C90.5204 90.7475 93.8178 87.465 96.2361 83.5846L96.3745 83.4463L102.611 89.6841Z" fill="#F7D4D7"/>
<path d="M104.566 27.7731L99.8678 32.4716C98.2452 34.0942 98.2452 36.7249 99.8678 38.3475C101.49 39.97 104.121 39.97 105.744 38.3475L110.442 33.649C112.065 32.0264 112.065 29.3956 110.442 27.773C108.82 26.1505 106.189 26.1505 104.566 27.7731Z" fill="#FBEAEC"/>
<path d="M95.3275 25.8021V19.1558C95.3275 16.8606 93.4669 15 91.1717 15C88.8765 15 87.0159 16.8606 87.0159 19.1558V25.8021C87.0159 28.0973 88.8765 29.9579 91.1717 29.9579C93.4669 29.9579 95.3275 28.0973 95.3275 25.8021Z" fill="#FBEAEC"/>
<path d="M119.181 43.0051H112.53C110.235 43.0051 108.375 44.8653 108.375 47.16C108.375 49.4547 110.235 51.3149 112.53 51.3149H119.181C121.475 51.3149 123.336 49.4547 123.336 47.16C123.336 44.8653 121.475 43.0051 119.181 43.0051Z" fill="#FBEAEC"/>
</g>
<defs>
<linearGradient id="paint0_linear_3173_9035" x1="79.9999" y1="66" x2="79.9999" y2="146.346" gradientUnits="userSpaceOnUse">
<stop offset="0.296875" stop-color="#FDF3F4"/>
<stop offset="1" stop-color="white" stop-opacity="0"/>
</linearGradient>
<clipPath id="clip0_3173_9035">
<rect width="160" height="160" fill="white"/>
</clipPath>
</defs>
</svg>
