<svg xmlns="http://www.w3.org/2000/svg" width="17" height="17" viewBox="0 0 17 17" fill="none">
<path d="M3.81145 10.8783L4.06429 11.3096L4.06429 11.3096L3.81145 10.8783ZM2.11373 13.6287L1.77169 13.9934L1.7717 13.9934L2.11373 13.6287ZM11.9357 13.6287L11.5937 13.264L11.5937 13.264L11.9357 13.6287ZM10.238 10.8783L9.98517 11.3096L9.98518 11.3096L10.238 10.8783ZM13.8581 3.34733C13.8581 3.07119 13.6342 2.84733 13.3581 2.84733C13.0819 2.84733 12.8581 3.07119 12.8581 3.34733H13.3581H13.8581ZM12.8581 6.68066C12.8581 6.95681 13.0819 7.18066 13.3581 7.18066C13.6342 7.18066 13.8581 6.95681 13.8581 6.68066H13.3581H12.8581ZM15.0247 5.514C15.3009 5.514 15.5247 5.29014 15.5247 5.014C15.5247 4.73786 15.3009 4.514 15.0247 4.514V5.014V5.514ZM11.6914 4.514C11.4153 4.514 11.1914 4.73786 11.1914 5.014C11.1914 5.29014 11.4153 5.514 11.6914 5.514V5.014V4.514ZM3.81145 10.8783L3.55862 10.4469C3.19371 10.6608 2.34294 11.0829 1.7992 11.6068C1.52221 11.8737 1.24917 12.2342 1.19933 12.6831C1.14591 13.1642 1.36081 13.608 1.77169 13.9934L2.11373 13.6287L2.45576 13.264C2.19722 13.0215 2.18482 12.8691 2.19322 12.7935C2.20518 12.6858 2.28305 12.5293 2.49305 12.3269C2.92329 11.9124 3.59081 11.5871 4.06429 11.3096L3.81145 10.8783ZM2.11373 13.6287L1.7717 13.9934C2.47175 14.6499 3.31702 15.1807 4.41192 15.1807V14.6807V14.1807C3.67526 14.1807 3.06373 13.8341 2.45575 13.264L2.11373 13.6287ZM4.41192 14.6807V15.1807H9.63754V14.6807V14.1807H4.41192V14.6807ZM9.63754 14.6807V15.1807C10.7325 15.1807 11.5777 14.6499 12.2778 13.9934L11.9357 13.6287L11.5937 13.264C10.9857 13.8341 10.3742 14.1807 9.63754 14.1807V14.6807ZM11.9357 13.6287L12.2778 13.9934C12.6887 13.608 12.9036 13.1642 12.8501 12.6831C12.8003 12.2342 12.5273 11.8737 12.2503 11.6068C11.7065 11.0829 10.8558 10.6608 10.4908 10.4469L10.238 10.8783L9.98518 11.3096C10.4587 11.5871 11.1262 11.9124 11.5564 12.327C11.7664 12.5293 11.8443 12.6858 11.8563 12.7935C11.8647 12.8691 11.8523 13.0215 11.5937 13.264L11.9357 13.6287ZM10.238 10.8783L10.4908 10.4469C8.36871 9.20305 5.68075 9.20305 3.55862 10.4469L3.81145 10.8783L4.06429 11.3096C5.87415 10.2488 8.1753 10.2488 9.98517 11.3096L10.238 10.8783ZM9.69141 5.34733H9.19141C9.19141 6.54395 8.22133 7.514 7.02474 7.514V8.014V8.514C8.77361 8.514 10.1914 7.09624 10.1914 5.34733H9.69141ZM7.02474 8.014V7.514C5.82812 7.514 4.85807 6.54395 4.85807 5.34733H4.35807H3.85807C3.85807 7.09623 5.27584 8.514 7.02474 8.514V8.014ZM4.35807 5.34733H4.85807C4.85807 4.15071 5.82812 3.18066 7.02474 3.18066V2.68066V2.18066C5.27584 2.18066 3.85807 3.59843 3.85807 5.34733H4.35807ZM7.02474 2.68066V3.18066C8.22133 3.18066 9.19141 4.15072 9.19141 5.34733H9.69141H10.1914C10.1914 3.59843 8.77361 2.18066 7.02474 2.18066V2.68066ZM13.3581 3.34733H12.8581V6.68066H13.3581H13.8581V3.34733H13.3581ZM15.0247 5.014V4.514H11.6914V5.014V5.514H15.0247V5.014Z" fill="#AF1237"/>
</svg>