<svg xmlns="http://www.w3.org/2000/svg" width="25" height="25" viewBox="0 0 25 25" fill="none">
<path d="M13.8625 3.91441C14.2767 3.91645 14.6142 3.58231 14.6162 3.1681C14.6182 2.7539 14.2841 2.41646 13.8699 2.41443L13.8662 3.16442L13.8625 3.91441ZM4.25745 4.55335L3.72712 4.02302L3.72712 4.02302L4.25745 4.55335ZM4.25745 20.7709L3.72711 21.3012L3.72713 21.3013L4.25745 20.7709ZM20.475 20.7709L21.0053 21.3013L21.0054 21.3012L20.475 20.7709ZM22.6161 13.1625C22.6163 12.7482 22.2807 12.4123 21.8665 12.4121C21.4522 12.4119 21.1163 12.7476 21.1161 13.1618L21.8661 13.1621L22.6161 13.1625ZM4.73792 14.1648L4.73601 14.9148C4.74193 14.9148 4.74786 14.9148 4.75378 14.9146L4.73792 14.1648ZM12.0373 16.4963L11.5844 17.0941L11.5844 17.0941L12.0373 16.4963ZM18.2524 16.1622L18.2495 16.9122L18.2532 16.9122L18.2524 16.1622ZM17.3284 4.13938C17.0397 4.43642 17.0465 4.91124 17.3435 5.19994C17.6405 5.48863 18.1153 5.48187 18.404 5.18483L17.8662 4.66211L17.3284 4.13938ZM22.3284 5.18483C22.6171 5.48187 23.0919 5.48863 23.3889 5.19994C23.686 4.91124 23.6927 4.43642 23.404 4.13938L22.8662 4.66211L22.3284 5.18483ZM19.6162 10.1621C19.6162 10.5763 19.952 10.9121 20.3662 10.9121C20.7804 10.9121 21.1162 10.5763 21.1162 10.1621H20.3662H19.6162ZM13.8662 3.16442L13.8699 2.41443C13.3976 2.41211 12.8965 2.41211 12.3662 2.41211V3.16211V3.91211C12.8973 3.91211 13.3946 3.91211 13.8625 3.91441L13.8662 3.16442ZM12.3662 3.16211V2.41211C10.1482 2.41211 8.40932 2.41052 7.05424 2.5927C5.67758 2.77779 4.58532 3.16482 3.72712 4.02302L4.25745 4.55335L4.78778 5.08368C5.32083 4.55064 6.04378 4.24205 7.25411 4.07933C8.48601 3.9137 10.1058 3.91211 12.3662 3.91211V3.16211ZM4.25745 4.55335L3.72712 4.02302C2.86892 4.88122 2.48189 5.97348 2.2968 7.35014C2.11462 8.70522 2.11621 10.4441 2.11621 12.6621H2.86621H3.61621C3.61621 10.4017 3.6178 8.78191 3.78343 7.55001C3.94615 6.33968 4.25474 5.61673 4.78778 5.08368L4.25745 4.55335ZM2.86621 12.6621H2.11621C2.11621 14.8801 2.11462 16.619 2.2968 17.9741C2.48189 19.3507 2.86892 20.443 3.72711 21.3012L4.25745 20.7709L4.78779 20.2406C4.25474 19.7075 3.94615 18.9845 3.78343 17.7742C3.6178 16.5423 3.61621 14.9225 3.61621 12.6621H2.86621ZM4.25745 20.7709L3.72713 21.3013C4.58533 22.1594 5.67759 22.5464 7.05424 22.7315C8.40932 22.9137 10.1482 22.9121 12.3662 22.9121V22.1621V21.4121C10.1058 21.4121 8.48601 21.4105 7.2541 21.2449C6.04378 21.0822 5.32082 20.7736 4.78777 20.2406L4.25745 20.7709ZM12.3662 22.1621V22.9121C14.5842 22.9121 16.3231 22.9137 17.6782 22.7315C19.0548 22.5464 20.1471 22.1594 21.0053 21.3013L20.475 20.7709L19.9447 20.2406C19.4116 20.7736 18.6886 21.0822 17.4783 21.2449C16.2464 21.4105 14.6266 21.4121 12.3662 21.4121V22.1621ZM20.475 20.7709L21.0054 21.3012C21.8306 20.4759 22.2204 19.4338 22.4137 18.1296C22.6036 16.8473 22.6152 15.2193 22.6161 13.1625L21.8661 13.1621L21.1161 13.1618C21.1152 15.2519 21.1003 16.7591 20.9298 17.9098C20.7626 19.0386 20.4578 19.7274 19.9447 20.2406L20.475 20.7709ZM2.86621 14.2975L2.974 15.0397C3.55665 14.9551 4.1458 14.9133 4.73601 14.9148L4.73792 14.1648L4.73984 13.4148C4.0763 13.4131 3.41381 13.4601 2.75842 13.5553L2.86621 14.2975ZM4.73792 14.1648L4.75378 14.9146C7.24155 14.862 9.66233 15.6377 11.5844 17.0941L12.0373 16.4963L12.4903 15.8985C10.2914 14.2323 7.53817 13.3554 4.72206 13.415L4.73792 14.1648ZM12.0373 16.4963L11.5844 17.0941C13.3659 18.444 14.6087 20.2946 15.1401 22.3498L15.8662 22.1621L16.5923 21.9744C15.9731 19.5794 14.5305 17.4444 12.4903 15.8985L12.0373 16.4963ZM21.8662 17.0583L22.2051 16.3892C20.9331 15.745 19.6016 15.4108 18.2516 15.4122L18.2524 16.1622L18.2532 16.9122C19.3484 16.911 20.4485 17.181 21.5273 17.7274L21.8662 17.0583ZM18.2524 16.1622L18.2554 15.4122C16.2087 15.4041 14.2163 16.1584 12.405 17.5707L12.8662 18.1621L13.3274 18.7536C14.9191 17.5124 16.5927 16.9057 18.2495 16.9122L18.2524 16.1622ZM17.8662 4.66211L18.404 5.18483C18.5611 5.02325 18.7633 4.76615 18.9555 4.52142C19.1611 4.25966 19.3831 3.97529 19.6101 3.70733C19.84 3.4361 20.0535 3.20771 20.2356 3.0526C20.3264 2.9753 20.3917 2.93152 20.4318 2.91005C20.4778 2.88541 20.4494 2.91211 20.3662 2.91211V2.16211V1.41211C20.1079 1.41211 19.8855 1.50113 19.724 1.58752C19.5567 1.6771 19.4011 1.79307 19.263 1.91064C18.9875 2.14526 18.712 2.44706 18.4657 2.73761C18.2168 3.03144 17.9757 3.34047 17.7759 3.59487C17.5627 3.8663 17.4171 4.04812 17.3284 4.13938L17.8662 4.66211ZM22.8662 4.66211L23.404 4.13938C23.3153 4.04812 23.1697 3.8663 22.9565 3.59487C22.7567 3.34047 22.5157 3.03144 22.2667 2.73761C22.0205 2.44706 21.7449 2.14526 21.4694 1.91064C21.3314 1.79307 21.1758 1.6771 21.0084 1.58752C20.8469 1.50113 20.6245 1.41211 20.3662 1.41211V2.16211V2.91211C20.283 2.91211 20.2546 2.88541 20.3006 2.91005C20.3407 2.93152 20.4061 2.9753 20.4968 3.0526C20.6789 3.20771 20.8924 3.4361 21.1223 3.70733C21.3493 3.97529 21.5713 4.25966 21.7769 4.52142C21.9691 4.76615 22.1713 5.02325 22.3284 5.18483L22.8662 4.66211ZM20.3662 2.16211H19.6162V10.1621H20.3662H21.1162V2.16211H20.3662Z" fill="#333333"/>
</svg>