<svg width="21" height="21" viewBox="0 0 21 21" fill="none" xmlns="http://www.w3.org/2000/svg">
<g clip-path="url(#clip0_66884_50486)">
<path d="M19.0057 20.5714H1.55022C1.13908 20.5714 0.744772 20.4076 0.454049 20.116C0.163326 19.8244 0 19.4289 0 19.0165V1.55491C0 1.14252 0.163326 0.747024 0.454049 0.455422C0.744772 0.16382 1.13908 0 1.55022 0L19.0057 0C19.4169 0 19.8112 0.16382 20.1019 0.455422C20.3926 0.747024 20.5559 1.14252 20.5559 1.55491V19.0165C20.5559 19.4289 20.3926 19.8244 20.1019 20.116C19.8112 20.4076 19.4169 20.5714 19.0057 20.5714Z" fill="white"/>
<path d="M19.9204 2.05242C19.9204 1.67714 19.7717 1.31724 19.5072 1.05189C19.2426 0.786527 18.8838 0.637451 18.5097 0.637451H14.2931L0.651123 14.3206V18.5189C0.651123 18.8942 0.79975 19.2541 1.06431 19.5194C1.32887 19.7848 1.68768 19.9339 2.06182 19.9339H6.20091L19.9204 6.21957V2.05242Z" fill="#AE1C3F"/>
<path d="M19.9205 7.05938L7.05362 19.934H18.5098C18.6943 19.9361 18.8774 19.9014 19.0484 19.832C19.2195 19.7626 19.3751 19.6598 19.5063 19.5297C19.6375 19.3995 19.7417 19.2446 19.8128 19.0738C19.8839 18.9029 19.9205 18.7197 19.9205 18.5346V7.05938ZM0.65121 13.4501L13.4405 0.653164H2.06191C1.87608 0.651081 1.6917 0.686258 1.51961 0.756629C1.34752 0.827 1.19118 0.931147 1.05977 1.06296C0.928356 1.19476 0.824522 1.35158 0.754363 1.52419C0.684204 1.6968 0.649134 1.88174 0.65121 2.06813V13.4501Z" fill="#053E2B"/>
<path d="M7.54969 19.7473C8.00683 19.5664 8.47886 19.4259 8.96039 19.3275C9.42467 19.2664 9.85032 19.0362 10.1562 18.6806C10.4621 18.325 10.6269 17.869 10.6191 17.3994C10.6191 16.9951 10.0145 17.5082 10.0145 17.5082C9.43613 17.5778 8.87161 17.735 8.3403 17.9747C8.07594 18.1845 7.866 18.4552 7.72835 18.7638C7.5907 19.0724 7.52941 19.4098 7.54969 19.7473Z" fill="#FFDD00"/>
<path d="M10.4951 17.3061C10.329 17.3554 10.1756 17.4403 10.0455 17.5549C9.47813 17.6297 8.9246 17.7869 8.40228 18.0214C8.16956 18.2087 7.98084 18.4451 7.84955 18.7139C7.71826 18.9826 7.64763 19.2771 7.64267 19.5763C8.07698 19.4181 8.52267 19.2934 8.97586 19.2031C9.41518 19.132 9.81404 18.9039 10.0989 18.561C10.3838 18.2181 10.5355 17.7835 10.5261 17.3372C10.5261 17.2439 10.5261 17.2439 10.5261 17.2439M7.47215 19.8406V19.7473C7.45755 19.397 7.52578 19.0481 7.67126 18.7292C7.81675 18.4103 8.03537 18.1305 8.30927 17.9126C8.8398 17.6678 9.40431 17.5053 9.98351 17.4305C10.1212 17.277 10.2981 17.1641 10.4951 17.104C10.4951 17.104 10.6811 17.104 10.6811 17.3372C10.6931 17.8235 10.5257 18.2972 10.211 18.6673C9.89633 19.0375 9.4565 19.2781 8.97586 19.3431C8.49496 19.4371 8.02299 19.5723 7.56516 19.7473L7.47215 19.8406Z" fill="#AE1C3F"/>
<path d="M12.5878 14.8339C12.5878 14.8339 12.8668 16.5754 11.4871 17.1041C10.9576 17.2898 10.4399 17.5079 9.93689 17.7571C9.85471 17.4025 9.87688 17.0316 10.0007 16.6894C10.1245 16.3471 10.3447 16.0483 10.6345 15.8291C11.093 15.5777 11.5761 15.3745 12.0762 15.2226C12.2986 15.1475 12.4932 15.0065 12.6343 14.8184" fill="#FFDD00"/>
<path d="M12.5413 15.0049C12.3946 15.132 12.2267 15.232 12.0453 15.3004H11.8902C11.4539 15.4438 11.0331 15.6313 10.6346 15.8601C10.3648 16.0571 10.1561 16.3266 10.0326 16.6375C9.90917 16.9485 9.87601 17.2881 9.93697 17.6172L10.8516 17.3217L11.4562 17.1041C11.8286 16.919 12.1336 16.6214 12.3283 16.2531C12.523 15.8849 12.5975 15.4646 12.5413 15.0516M9.85946 17.9126V17.8038C9.77649 17.4345 9.80106 17.0492 9.93023 16.6936C10.0594 16.338 10.2877 16.0271 10.5881 15.7979C10.9938 15.5578 11.4255 15.3647 11.8747 15.2226H12.0298C12.2376 15.1598 12.4214 15.0351 12.5568 14.865H12.6809C12.7713 15.3287 12.71 15.8092 12.5061 16.2351C12.3022 16.661 11.9665 17.0094 11.5492 17.2284L10.8516 17.4617C10.546 17.5579 10.2501 17.6828 9.96797 17.8349L9.85946 17.9126Z" fill="#AE1C3F"/>
<path d="M13.3009 12.7036C13.5439 13.0347 13.6659 13.4396 13.6461 13.8503C13.6263 14.2609 13.4661 14.6522 13.1923 14.9582C12.9908 15.2226 11.9522 15.8912 11.6421 16.2022C11.5007 15.8804 11.4368 15.5296 11.4556 15.1785C11.4745 14.8273 11.5755 14.4855 11.7506 14.1808C12.0443 13.8269 12.3831 13.5132 12.7583 13.2478C12.9482 13.0952 13.1107 12.9111 13.2388 12.7036" fill="#FFDD00"/>
<path d="M13.3009 12.8125C13.1801 12.9979 13.034 13.1654 12.8668 13.3101C12.4958 13.5687 12.1574 13.8715 11.8592 14.2119C11.7001 14.4933 11.6051 14.8066 11.581 15.1292C11.5569 15.4518 11.6042 15.7757 11.7196 16.0778C11.9378 15.89 12.1655 15.7135 12.4017 15.5491C12.6592 15.3653 12.9027 15.1626 13.1303 14.9427C13.3834 14.659 13.5358 14.2993 13.5638 13.9196C13.5918 13.5399 13.494 13.1616 13.2854 12.8436M11.7352 16.3577V16.2644C11.5819 15.932 11.5117 15.5671 11.5306 15.2014C11.5495 14.8356 11.657 14.48 11.8437 14.1653C12.1504 13.8138 12.4934 13.4959 12.8668 13.2168C13.0511 13.0688 13.2084 12.8899 13.3319 12.6881C13.5887 13.0273 13.7198 13.4455 13.7028 13.871C13.6859 14.2966 13.5218 14.7029 13.2389 15.0205C13.009 15.2595 12.7544 15.4732 12.4793 15.658C12.216 15.8462 11.9672 16.0541 11.7352 16.2799V16.3577Z" fill="#AE1C3F"/>
<path d="M12.2623 10.4023C12.2623 10.4023 11.4562 10.8687 11.9832 12.2215C12.2565 12.7204 12.4898 13.2404 12.6808 13.7764C13.0096 13.5514 13.2539 13.2225 13.3747 12.842C13.4955 12.4616 13.4859 12.0516 13.3474 11.6773C13.1294 11.1437 12.7499 10.6923 12.2623 10.3867" fill="#FFDD00"/>
<path d="M12.2623 10.48C12.1228 10.5733 11.5957 11.0553 12.0452 12.1904L12.2158 12.5481C12.4197 12.9103 12.591 13.2902 12.7273 13.6831C13.0188 13.4573 13.2304 13.1435 13.3308 12.788C13.4313 12.4326 13.4154 12.0541 13.2854 11.7084C13.0732 11.2063 12.7171 10.7788 12.2623 10.48ZM12.6188 13.9941V13.8075C12.4906 13.3916 12.3191 12.9903 12.1073 12.6103C12.0384 12.4894 11.9762 12.3648 11.9212 12.2371C11.3787 10.8688 12.2158 10.3556 12.2158 10.3401C12.7298 10.6483 13.1277 11.1185 13.3474 11.6773C13.4911 12.0661 13.5005 12.492 13.374 12.8868C13.2475 13.2815 12.9925 13.6222 12.6498 13.8542L12.6188 13.9941Z" fill="#AE1C3F"/>
<path d="M10.2005 8.58301C10.1322 8.86652 10.1317 9.16221 10.1991 9.44594C10.2664 9.72967 10.3997 9.99342 10.588 10.2157C10.8671 10.5422 12.1382 10.9309 12.6343 11.3196C12.6343 11.3196 13.2854 9.18942 10.2005 8.58301Z" fill="#FFDD00"/>
<path d="M10.247 8.66083C10.1889 8.93248 10.1936 9.21387 10.2608 9.4834C10.328 9.75293 10.4558 10.0034 10.6345 10.2157C10.9295 10.4475 11.2591 10.6312 11.6112 10.76C11.9489 10.9005 12.2754 11.0668 12.5878 11.2575C12.6934 10.7939 12.6273 10.3075 12.4018 9.88921C12.1496 9.5504 11.8312 9.26673 11.4661 9.05552C11.1009 8.84432 10.6966 8.71002 10.278 8.66083M12.6653 11.4286H12.5878C12.2626 11.2187 11.9203 11.0366 11.5647 10.8843C11.1888 10.7521 10.8378 10.5576 10.526 10.309C10.3278 10.0769 10.1889 9.79992 10.1214 9.5019C10.0538 9.20389 10.0597 8.89386 10.1384 8.59863C10.5877 8.64499 11.0219 8.78684 11.4122 9.01474C11.8024 9.24264 12.1398 9.55135 12.4018 9.9203C12.5403 10.1515 12.631 10.4084 12.6683 10.6756C12.7056 10.9427 12.6887 11.2147 12.6188 11.4752L12.6653 11.4286Z" fill="#AE1C3F"/>
<path d="M8.49512 7.05933C8.49512 7.05933 11.1615 7.26146 10.8515 9.71822C10.4999 9.49376 10.132 9.29624 9.7508 9.12735C9.53376 9.03406 8.46411 8.69198 8.54162 7.68129C8.54162 7.40141 8.54162 7.05933 8.54162 7.05933" fill="#FFDD00"/>
<path d="M8.55725 7.13698C8.55725 7.26137 8.55725 7.49461 8.55725 7.6812C8.55725 8.5364 9.30136 8.87848 9.6424 9.03397H9.73542C10.0879 9.18687 10.4298 9.3635 10.7586 9.56264C10.8031 9.29065 10.7916 9.0124 10.725 8.74501C10.6583 8.47761 10.5379 8.22671 10.371 8.00773C9.89158 7.49913 9.25 7.17462 8.55725 7.09033M10.8516 9.82697C10.5002 9.61614 10.138 9.4241 9.76642 9.25165H9.65791C9.33236 9.09616 8.43323 8.72299 8.49524 7.77449C8.49524 7.51016 8.49524 7.16808 8.49524 7.16808H8.57275C9.3296 7.23471 10.0357 7.57777 10.557 8.13212C10.8497 8.60516 10.9548 9.17111 10.8516 9.71813V9.82697Z" fill="#AE1C3F"/>
<path d="M8.5416 4.74248C8.25229 4.98044 8.04654 5.30506 7.95449 5.6688C7.86243 6.03255 7.8889 6.4163 8.03003 6.76386C8.24758 7.16134 8.54917 7.50629 8.91365 7.77455C8.91365 7.77455 9.2237 6.88825 9.40972 6.21964C9.40972 5.97085 9.67326 4.94461 9.05317 4.55589C8.97077 4.50288 8.87087 4.48458 8.77511 4.50495C8.67934 4.52532 8.59545 4.58273 8.5416 4.66473" fill="#FFDD00"/>
<path d="M8.83614 4.66479C8.68112 4.66479 8.60361 4.80473 8.58811 4.80473C8.31112 5.03443 8.11601 5.34816 8.03214 5.69869C7.94827 6.04922 7.98017 6.41759 8.12304 6.74836C8.30579 7.12851 8.57055 7.46312 8.89815 7.72795C8.89815 7.51027 9.20819 6.81056 9.36322 6.29744C9.36322 6.29744 9.67326 5.11571 9.03767 4.74253C8.98273 4.69196 8.91071 4.66418 8.83614 4.66479ZM8.96016 7.94564C8.57548 7.65864 8.26241 7.28607 8.04553 6.85721C7.87144 6.49267 7.82114 6.08099 7.90233 5.68508C7.98351 5.28917 8.19171 4.93082 8.49509 4.66479C8.53267 4.60835 8.58333 4.5619 8.64273 4.5294C8.70213 4.4969 8.76849 4.47933 8.83614 4.4782C8.91757 4.45779 9.00275 4.45779 9.08418 4.4782C9.81278 4.94467 9.50274 6.17305 9.48723 6.21969C9.30121 6.9505 8.99116 7.7746 8.97566 7.7746L8.96016 7.94564Z" fill="#AE1C3F"/>
<path d="M8.32477 5.48881C8.32477 5.48881 7.56516 3.21864 10.3246 2.59668C10.4986 2.88832 10.5555 3.2355 10.4835 3.56766C10.4115 3.89981 10.2161 4.192 9.937 4.38482C9.65796 4.64916 8.5108 5.22447 8.38678 5.48881" fill="#FFDD00"/>
<path d="M10.2936 2.67437C9.93787 2.72763 9.5976 2.85644 9.2955 3.05219C8.99341 3.24793 8.73646 3.50611 8.54182 3.80945C8.2963 4.28909 8.23559 4.84265 8.3713 5.36436C8.63036 5.16139 8.9051 4.97941 9.19292 4.82014C9.43385 4.67767 9.66674 4.52195 9.89052 4.35367C10.1516 4.17596 10.3374 3.90724 10.4119 3.59974C10.4864 3.29225 10.4442 2.96796 10.2936 2.68991M8.30929 5.64424V5.5043C8.21866 5.21559 8.1857 4.91179 8.2123 4.61029C8.2389 4.30878 8.32454 4.01551 8.46431 3.74725C8.67425 3.42074 8.95184 3.14341 9.27819 2.93413C9.60454 2.72485 9.972 2.58852 10.3556 2.53442C10.5364 2.83883 10.5953 3.20071 10.5205 3.54701C10.4457 3.89332 10.2427 4.19827 9.95252 4.40031C9.75037 4.58953 9.53255 4.76119 9.30143 4.91343C8.98966 5.08735 8.69845 5.29599 8.43331 5.5354L8.30929 5.64424Z" fill="#AE1C3F"/>
<path d="M12.6498 0.870738C12.6498 0.870738 9.78194 0.808542 9.89045 3.37414C10.7116 3.1455 11.4876 2.77736 12.1848 2.2857C12.5097 1.88839 12.6755 1.38397 12.6498 0.870738Z" fill="#FFDD00"/>
<path d="M12.5878 0.932893C11.8154 0.938358 11.0714 1.22579 10.495 1.74145C10.3051 1.95026 10.1603 2.19616 10.0696 2.46372C9.97895 2.73128 9.94431 3.01474 9.96792 3.29635C10.7428 3.08193 11.4728 2.72901 12.1227 2.25456C12.4312 1.88443 12.5963 1.41521 12.5878 0.932893ZM9.8284 3.46739V3.3741C9.79727 3.06211 9.83229 2.74705 9.93114 2.44959C10.03 2.15213 10.1905 1.87901 10.402 1.64815C11.0103 1.1002 11.8012 0.800645 12.6188 0.8085H12.7118C12.733 1.33795 12.5623 1.85716 12.2312 2.27011C11.5276 2.76766 10.7473 3.14587 9.92141 3.38965L9.8284 3.46739Z" fill="#AE1C3F"/>
</g>
<defs>
<clipPath id="clip0_66884_50486">
<rect width="20.5714" height="20.5714" fill="white"/>
</clipPath>
</defs>
</svg>
